<?xml version="1.0" encoding="utf-8"?>
<!-- Generator: Adobe Illustrator 28.0.0, SVG Export Plug-In . SVG Version: 6.00 Build 0)  -->
<svg version="1.1" id="Layer_1" xmlns="http://www.w3.org/2000/svg" xmlns:xlink="http://www.w3.org/1999/xlink" x="0px" y="0px"
	 viewBox="0 0 780.5 116.1" style="enable-background:new 0 0 780.5 116.1;" xml:space="preserve">
<style type="text/css">
	.st0{fill:#332E5B;}
	.st1{fill:#DC9230;}
	.st2{fill:#4676B9;}
</style>
<path class="st0" d="M-111.9-219.4c0,3-1.3,5.4,2.4,5.4h59.3c12.9,0,15.3,9.7,15.3,18.8c0,9.2-2.3,18.6-15.2,18.6h-60.5
	c-3.8,0-6.9,2.5-6.7,5.5c0.1,1.6,0-2.5,0-0.9s0,3.2,0,4.7c-0.1,3,3,5.4,6.7,5.4l64.4-0.1c16.9,0,24.1-2.3,32.2-8s9.4-13.1,9.4-24
	c0-6.6-2.4-15-5.3-19.2c-1.8-2.5-3.1-5-6-6.9s3.6-6,6.2-8.3c5.3-4.8,5.2-10.7,5.2-18.6c0-10.6-0.3-16.7-8.4-22s-20.7-8-37.5-8
	l-59.3,0.1c-3.7,0-6.7,2.4-6.7,5.4c0,4.9-0.1,1.3-0.1,6.2c0,3,3,5.3,6.7,5.3l55.3,0.1c19.5-0.2,19.7,8.6,19.7,15.9
	c0,7.6,0.4,13.9-19.6,14.9h-55.1c-3.7,0-2.4,2.3-2.4,5.3L-111.9-219.4z"/>
<path class="st0" d="M235.2,66.9l-12.7,36.7h-17.6l29-83.4c2.1-6,7.2-10,12.8-10h6.4c5.6,0,10.7,4,12.8,10l29,83.4h-17.5l-12.7-36.7
	 M264.6,66.9l-14.7-42.3l-0.7,1.9l-14,40.4"/>
<path class="st0" d="M499.8,66.3L487,103h-17.6l29-83.4c2.1-6,7.2-10,12.8-10h6.4c5.6,0,10.7,4,12.8,10l29.1,83.4h-17.5l-12.7-36.7
	 M529.2,66.3L514.5,24l-0.7,1.9l-14,40.4"/>
<path class="st0" d="M317.5,103.6V70.3l-34-53.3c-1.8-2.8-0.1-6.8,3-6.8h10.8c1.2,0,2.4,0.7,3,1.8l25.3,40.6L350.8,12
	c0.6-1.1,1.8-1.7,3-1.8h10.9c3,0,4.7,4,3,6.8l-33.8,53.2v33.5H317.5z"/>
<path class="st0" d="M379,101.5V12.4c-0.1-1.1,0.8-2.1,1.9-2.1c0,0,0,0,0,0h12.5c1.1,0.1,1.9,1,1.8,2.1v36.1h50.9V12.4
	c-0.1-1.1,0.7-2,1.8-2.1h12.5c1.1,0.1,1.9,1,1.8,2.1v89.1c0.1,1.1-0.7,2-1.8,2.1h-12.5c-1.1-0.1-1.9-1-1.8-2.1v-36h-50.9v36
	c0.1,1.1-0.7,2-1.8,2.1h-12.5C379.7,103.6,378.9,102.6,379,101.5C379,101.5,379,101.5,379,101.5z"/>
<path class="st0" d="M565.7,95.9v-0.2c0-4.6,4.4-8.4,9.8-8.4l69,0.1c4,0,7.1-0.9,9.3-2.7c2.2-1.8,3.2-4.7,3.2-8.7s-1.1-6.9-3.2-8.7
	s-5.2-2.7-9.3-2.7h-49.1c-10.2,0-18-2.3-23.7-7s-8.4-11.5-8.4-20.6c0-9.1,2.8-15.9,8.4-20.6c5.6-4.7,13.5-7,23.7-7h67.3
	c5.4,0,9.8,3.8,9.8,8.4v0.2c0,4.6-4.4,8.4-9.8,8.4l-64.9-0.1c-3.9,0-7,0.9-9.2,2.5c-2.2,1.7-3.3,4.4-3.3,8.2c0,3.8,1.1,6.5,3.3,8.2
	c2.2,1.7,5.3,2.5,9.2,2.5H647c10.2,0,18,2.4,23.7,7.1s8.4,11.8,8.4,21.1c0,9.2-2.8,16.2-8.4,21c-5.6,4.8-13.5,7.2-23.7,7.2h-71.4
	C570.1,104.3,565.7,100.5,565.7,95.9z"/>
<path class="st1" d="M-182.4-276.8c31,0,56.1,25.7,56.1,57.5s-25.1,57.5-56.1,57.5"/>
<rect x="-193" y="-276.8" class="st1" width="10.6" height="114.9"/>
<path class="st2" d="M-97.1-161.9h-68c28.4-7,49.1-30.7,49.1-57.6s-20.7-50.6-49.1-57.6h65.2c1.6,0.9,36.2,20.1,36,57.6
	C-64.2-182.5-95.3-162.9-97.1-161.9z"/>
<path class="st2" d="M244.3,66.9h9.5c4.4,0,7.9,3.5,7.9,7.9v0c0,4.4-3.5,7.9-7.9,7.9h-9.5c-4.4,0-7.9-3.5-7.9-7.9v0
	C236.3,70.5,239.9,66.9,244.3,66.9z"/>
<path class="st1" d="M509.7,66.9h9.6c4.4,0,7.9,3.5,7.9,7.9v0c0,4.4-3.5,7.9-7.9,7.9h-9.6c-4.4,0-7.9-3.5-7.9-7.9v0
	C501.8,70.5,505.3,66.9,509.7,66.9z"/>
<path class="st0" d="M101.5,103.8V9.9l70.4-0.3c9.3,0,16.2,2.2,20.6,6.5c4.5,4.3,6.7,10.9,6.7,19.5c0,8.7-2.6,15-7.7,19.1
	c3.3,2,5.9,4.9,7.6,8.4c1.6,3.5,2.5,7.9,2.5,13.4c0,8.9-2.2,15.6-6.7,20.2s-11.4,6.9-20.6,7L101.5,103.8z M169.7,26.4h-49.4v21.1
	h49.4c7.1,0,10.6-3.6,10.6-10.8C180.3,29.9,176.7,26.4,169.7,26.4z M172,64.4h-51.8v22.4H172c7.1,0,10.6-3.8,10.6-11.3
	C182.6,68.1,179.1,64.4,172,64.4L172,64.4z"/>
</svg>
